<svg width="28" height="33" viewBox="0 0 28 33" fill="none" xmlns="http://www.w3.org/2000/svg">
<path fill-rule="evenodd" clip-rule="evenodd" d="M7.43929 2.30779C3.95127 3.29932 1.0157 4.14502 0.9158 4.18721C0.685078 4.28454 0.464173 4.58065 0.382561 4.90189C0.301256 5.22219 0.148894 6.83426 0.0636001 8.27742C-0.022123 9.72696 -0.0209571 12.9405 0.0656865 14.1846C0.37618 18.6421 1.27771 21.9957 2.78815 24.3112C4.49378 26.926 7.03319 29.2577 9.91526 30.8552C11.3162 31.6318 13.4702 32.5 13.9959 32.5C14.3406 32.5 15.6408 32.0332 16.9106 31.4535C20.1155 29.9904 23.2727 27.2712 25.2036 24.3112C26.714 21.9957 27.6155 18.6421 27.926 14.1846C28.0688 12.1343 27.999 8.60685 27.7671 6.15209C27.6342 4.74568 27.5302 4.4265 27.1372 4.21947C26.8821 4.08507 14.1596 0.494318 13.9589 0.500007C13.8611 0.50282 10.9272 1.31632 7.43929 2.30779ZM20.6478 9.56481C20.823 9.61439 21.0589 9.80254 21.5244 10.2639C21.8748 10.6112 22.2188 10.9899 22.289 11.1056C22.4434 11.3601 22.4589 11.8315 22.3215 12.0953C22.1797 12.3676 13.3807 21.294 13.1788 21.3704C12.9395 21.4609 12.6175 21.4521 12.3831 21.3484C12.1292 21.2362 6.59955 15.5881 6.51297 15.3526C6.32636 14.8448 6.50628 14.4582 7.29779 13.666C8.10391 12.8591 8.44392 12.7245 8.99078 12.9955C9.14774 13.0733 9.89974 13.7917 11.0187 14.9327L12.7972 16.7462L16.2959 13.1888C20.1615 9.2582 20.01 9.38441 20.6478 9.56481Z" fill="#D0E1D4"/>
</svg>
