<svg width="203" height="37" viewBox="0 0 203 37" fill="none" xmlns="http://www.w3.org/2000/svg">
<path d="M14.8417 29V27.2092C14.3714 27.8785 13.7745 28.394 13.0509 28.7558C12.3274 29.0995 11.4681 29.2713 10.4733 29.2713C8.97188 29.2713 7.75992 28.8643 6.83739 28.0503C5.91485 27.2363 5.45359 26.151 5.45359 24.7943C5.45359 23.3834 6.01434 22.3071 7.13585 21.5655C8.25736 20.8238 9.86728 20.453 11.9656 20.453C12.3816 20.453 12.7796 20.4711 13.1595 20.5073C13.5393 20.5254 13.9463 20.5615 14.3805 20.6158V19.7475C14.3805 18.9335 14.1634 18.3004 13.7293 17.8482C13.2951 17.396 12.6801 17.1699 11.8842 17.1699C11.0702 17.1699 10.428 17.396 9.95772 17.8482C9.48741 18.3004 9.21608 18.9335 9.14372 19.7475H5.75205C5.82441 18.626 6.12288 17.6583 6.64745 16.8443C7.19012 16.0122 7.90463 15.37 8.79099 14.9178C9.69543 14.4656 10.7265 14.2395 11.8842 14.2395C13.7835 14.2395 15.2578 14.7369 16.3069 15.7318C17.3742 16.7267 17.9078 18.1105 17.9078 19.8832V29H14.8417ZM9.00805 24.6858C9.00805 25.2827 9.20703 25.7621 9.60499 26.1239C10.021 26.4856 10.5818 26.6665 11.2873 26.6665C12.246 26.6665 12.9967 26.4223 13.5393 25.9339C14.1001 25.4274 14.3805 24.7582 14.3805 23.9261V22.895C13.9463 22.8226 13.5574 22.7774 13.2137 22.7593C12.87 22.7232 12.5354 22.7051 12.2098 22.7051C11.1606 22.7051 10.3647 22.8679 9.82205 23.1935C9.27939 23.5191 9.00805 24.0165 9.00805 24.6858ZM24.9294 21.1042V29H21.1579V14.5108H24.6309V16.5729C25.1736 15.8494 25.8067 15.2796 26.5303 14.8635C27.2719 14.4475 28.1221 14.2395 29.0808 14.2395C30.546 14.2395 31.7308 14.7098 32.6353 15.6504C33.5397 16.5729 33.9919 17.9025 33.9919 19.639V29H30.2475V20.9143C30.2475 19.8289 30.0305 19.0059 29.5963 18.4451C29.1803 17.8663 28.5472 17.5769 27.697 17.5769C27.1905 17.5769 26.7202 17.7125 26.2861 17.9839C25.87 18.2371 25.5354 18.626 25.2821 19.1506C25.047 19.6571 24.9294 20.3083 24.9294 21.1042ZM49.763 14.5108L42.7083 34.2367H38.6112L40.6733 28.8372L34.9753 14.5108H39.0453L42.6812 24.4416L45.9914 14.5108H49.763Z" fill="black"/>
<path d="M135.328 24.3602C135.328 25.8616 134.767 27.0554 133.646 27.9418C132.542 28.8282 130.96 29.2713 128.897 29.2713C126.853 29.2713 125.253 28.8101 124.095 27.8875C122.955 26.9469 122.313 25.6716 122.168 24.0617H125.777C125.795 24.8034 126.094 25.4003 126.673 25.8525C127.269 26.2867 128.029 26.5037 128.952 26.5037C129.693 26.5037 130.308 26.3862 130.797 26.151C131.285 25.8978 131.529 25.5179 131.529 25.0114C131.529 24.5592 131.376 24.2155 131.068 23.9803C130.761 23.7452 130.254 23.5643 129.549 23.4377L126.944 22.9493C125.641 22.7141 124.619 22.2438 123.878 21.5383C123.136 20.8329 122.765 19.9194 122.765 18.7979C122.765 17.8934 123.01 17.0975 123.498 16.4101C123.986 15.7228 124.674 15.1891 125.56 14.8093C126.446 14.4294 127.487 14.2395 128.68 14.2395C129.892 14.2395 130.96 14.4475 131.882 14.8635C132.823 15.2615 133.564 15.8403 134.107 16.6001C134.668 17.3598 134.993 18.2552 135.084 19.2863H131.475C131.421 18.5808 131.141 18.0291 130.634 17.6311C130.128 17.2151 129.476 17.0071 128.68 17.0071C127.993 17.0071 127.432 17.1337 126.998 17.3869C126.582 17.6221 126.374 17.9748 126.374 18.4451C126.374 18.8793 126.528 19.2049 126.835 19.4219C127.143 19.6209 127.622 19.7837 128.273 19.9103L131.068 20.4259C132.479 20.6972 133.537 21.1585 134.243 21.8097C134.966 22.4609 135.328 23.311 135.328 24.3602ZM152.365 21.7554C152.365 23.1844 152.094 24.4687 151.551 25.6083C151.026 26.7298 150.285 27.6252 149.326 28.2945C148.386 28.9457 147.255 29.2713 145.934 29.2713C145.084 29.2713 144.297 29.0904 143.574 28.7287C142.85 28.3669 142.217 27.8333 141.675 27.1278V34.2367H137.903V14.5108H141.376V16.6272C141.937 15.8494 142.606 15.2615 143.384 14.8635C144.162 14.4475 145.012 14.2395 145.934 14.2395C147.237 14.2395 148.367 14.5741 149.326 15.2434C150.285 15.8946 151.026 16.79 151.551 17.9296C152.094 19.0511 152.365 20.3264 152.365 21.7554ZM148.485 21.7554C148.485 20.3987 148.15 19.3677 147.481 18.6622C146.812 17.9386 146.016 17.5769 145.093 17.5769C144.496 17.5769 143.936 17.7397 143.411 18.0653C142.886 18.3909 142.47 18.8612 142.163 19.4762C141.855 20.0731 141.702 20.8329 141.702 21.7554C141.702 22.6598 141.855 23.4286 142.163 24.0617C142.47 24.6768 142.877 25.138 143.384 25.4455C143.909 25.753 144.478 25.9068 145.093 25.9068C146.016 25.9068 146.812 25.5631 147.481 24.8757C148.15 24.1703 148.485 23.1302 148.485 21.7554ZM163.41 29V27.2092C162.94 27.8785 162.343 28.394 161.619 28.7558C160.896 29.0995 160.037 29.2713 159.042 29.2713C157.54 29.2713 156.328 28.8643 155.406 28.0503C154.483 27.2363 154.022 26.151 154.022 24.7943C154.022 23.3834 154.583 22.3071 155.704 21.5655C156.826 20.8238 158.436 20.453 160.534 20.453C160.95 20.453 161.348 20.4711 161.728 20.5073C162.108 20.5254 162.515 20.5615 162.949 20.6158V19.7475C162.949 18.9335 162.732 18.3004 162.298 17.8482C161.864 17.396 161.249 17.1699 160.453 17.1699C159.639 17.1699 158.997 17.396 158.526 17.8482C158.056 18.3004 157.785 18.9335 157.712 19.7475H154.321C154.393 18.626 154.691 17.6583 155.216 16.8443C155.759 16.0122 156.473 15.37 157.36 14.9178C158.264 14.4656 159.295 14.2395 160.453 14.2395C162.352 14.2395 163.826 14.7369 164.875 15.7318C165.943 16.7267 166.476 18.1105 166.476 19.8832V29H163.41ZM157.577 24.6858C157.577 25.2827 157.776 25.7621 158.174 26.1239C158.59 26.4856 159.15 26.6665 159.856 26.6665C160.814 26.6665 161.565 26.4223 162.108 25.9339C162.669 25.4274 162.949 24.7582 162.949 23.9261V22.895C162.515 22.8226 162.126 22.7774 161.782 22.7593C161.439 22.7232 161.104 22.7051 160.778 22.7051C159.729 22.7051 158.933 22.8679 158.391 23.1935C157.848 23.5191 157.577 24.0165 157.577 24.6858ZM175.831 29.2713C174.439 29.2713 173.208 28.9548 172.141 28.3217C171.092 27.6886 170.269 26.8022 169.672 25.6626C169.075 24.523 168.777 23.2206 168.777 21.7554C168.777 20.3083 169.075 19.024 169.672 17.9025C170.287 16.7629 171.128 15.8675 172.196 15.2163C173.263 14.5651 174.475 14.2395 175.831 14.2395C177.08 14.2395 178.21 14.5108 179.223 15.0535C180.236 15.578 181.059 16.3287 181.692 17.3055C182.325 18.2642 182.714 19.3948 182.859 20.6972H178.897C178.807 19.7385 178.481 18.9788 177.921 18.418C177.378 17.8572 176.682 17.5769 175.831 17.5769C175.18 17.5769 174.61 17.7487 174.122 18.0924C173.652 18.4361 173.281 18.9154 173.01 19.5305C172.756 20.1455 172.63 20.8871 172.63 21.7554C172.63 22.6056 172.756 23.3472 173.01 23.9803C173.281 24.6134 173.652 25.1018 174.122 25.4455C174.61 25.7711 175.18 25.9339 175.831 25.9339C176.7 25.9339 177.396 25.6626 177.921 25.1199C178.463 24.5592 178.789 23.7904 178.897 22.8136H182.859C182.732 24.1341 182.352 25.2827 181.719 26.2595C181.086 27.2182 180.272 27.9599 179.277 28.4845C178.282 29.009 177.134 29.2713 175.831 29.2713ZM191.522 29.2442C190.075 29.2442 188.8 28.9367 187.696 28.3217C186.611 27.6886 185.77 26.8022 185.173 25.6626C184.576 24.523 184.278 23.2025 184.278 21.7011C184.278 20.254 184.585 18.9697 185.2 17.8482C185.815 16.7267 186.665 15.8494 187.751 15.2163C188.836 14.5651 190.075 14.2395 191.468 14.2395C192.608 14.2395 193.639 14.4565 194.561 14.8907C195.502 15.3067 196.289 15.9036 196.922 16.6815C197.555 17.4593 198.007 18.3637 198.278 19.3948C198.55 20.4078 198.595 21.5022 198.414 22.6779H186.503V20.2902H194.426C194.389 19.2772 194.091 18.4813 193.53 17.9025C192.987 17.3055 192.273 17.0071 191.387 17.0071C190.681 17.0071 190.084 17.188 189.596 17.5497C189.107 17.9115 188.728 18.4451 188.456 19.1506C188.203 19.838 188.076 20.6882 188.076 21.7011C188.076 22.696 188.203 23.5372 188.456 24.2245C188.709 24.9119 189.089 25.4365 189.596 25.7983C190.102 26.16 190.717 26.3409 191.441 26.3409C192.273 26.3409 192.96 26.142 193.503 25.744C194.046 25.346 194.426 24.7943 194.643 24.0889H198.387C197.971 25.7169 197.166 26.9831 195.972 27.8875C194.778 28.792 193.295 29.2442 191.522 29.2442Z" fill="black"/>
<path fill-rule="evenodd" clip-rule="evenodd" d="M61.7693 13.5664C61.7033 13.7175 61.6667 13.8843 61.6667 14.0597V23.4331C61.6667 24.1142 62.2189 24.6664 62.9 24.6664H108.533C109.214 24.6664 109.767 24.1142 109.767 23.4331V14.0597C109.767 13.8843 109.73 13.7175 109.664 13.5664H113.442C113.458 13.7287 113.467 13.8932 113.467 14.0597V23.4331C113.467 26.1577 111.258 28.3664 108.533 28.3664H62.9C60.1754 28.3664 57.9667 26.1577 57.9667 23.4331V14.0597C57.9667 13.8932 57.9749 13.7287 57.991 13.5664H61.7693Z" fill="black"/>
</svg>
