<?xml version="1.0"?>
<svg xmlns="http://www.w3.org/2000/svg" xmlns:xlink="http://www.w3.org/1999/xlink" version="1.1" id="Layer_1" x="0px" y="0px" viewBox="0 0 512.005 512.005" style="enable-background:new 0 0 512.005 512.005;" xml:space="preserve" width="512px" height="512px"><g><g>
	<g>
		<path d="M448.003,64.005c-57.003,0-139.52-15.957-184.469-60.885c-4.16-4.16-10.923-4.16-15.083,0    C203.523,48.048,121.005,64.005,64.003,64.005c-5.888,0-10.667,4.779-10.667,10.667v213.333    c0,80.107,114.155,195.669,199.36,223.467c1.088,0.363,2.197,0.533,3.307,0.533s2.219-0.171,3.307-0.533    c85.205-27.797,199.36-143.36,199.36-223.467V74.672C458.669,68.784,453.891,64.005,448.003,64.005z M437.336,288.005    c0,63.275-99.115,173.205-181.333,202.069C173.784,461.211,74.669,351.28,74.669,288.005V85.168    c57.259-1.835,133.739-18.368,181.333-59.904C303.597,66.8,380.077,83.355,437.336,85.168V288.005z" data-original="#000000" class="active-path" data-old_color="#000000" fill="#286150"/>
	</g>
</g><g>
	<g>
		<path d="M406.488,106.736c-50.261-5.355-104.299-24.64-144.533-51.584c-3.605-2.389-8.277-2.389-11.883,0    c-40.235,26.944-94.272,46.229-144.533,51.584c-5.419,0.576-9.536,5.141-9.536,10.603v170.667    c0,51.456,84.416,149.269,155.733,180.437c1.365,0.597,2.816,0.896,4.267,0.896s2.901-0.299,4.267-0.896    c71.317-31.168,155.733-128.981,155.733-180.437V117.339C416.003,111.877,411.885,107.312,406.488,106.736z M394.669,288.005    c0,38.037-73.408,127.957-138.667,158.955c-65.259-30.997-138.667-120.939-138.667-158.955V126.789    c48.875-6.677,98.56-24.597,138.667-50.048c40.107,25.451,89.792,43.371,138.667,50.048V288.005z" data-original="#000000" class="active-path" data-old_color="#000000" fill="#286150"/>
	</g>
</g><g>
	<g>
		<path d="M256.003,128.005c-29.397,0-53.333,23.936-53.333,53.333s23.936,53.333,53.333,53.333s53.333-23.936,53.333-53.333    S285.4,128.005,256.003,128.005z M256.003,213.339c-17.643,0-32-14.357-32-32c0-17.643,14.357-32,32-32s32,14.357,32,32    C288.003,198.981,273.645,213.339,256.003,213.339z" data-original="#000000" class="active-path" data-old_color="#000000" fill="#286150"/>
	</g>
</g><g>
	<g>
		<path d="M256.003,213.339c-52.928,0-96,43.072-96,96c0,5.888,4.779,10.667,10.667,10.667h170.667    c5.888,0,10.667-4.779,10.667-10.667C352.003,256.411,308.931,213.339,256.003,213.339z M182.104,298.672    c5.184-36.139,36.373-64,73.92-64c37.547,0,68.715,27.861,73.899,64H182.104z" data-original="#000000" class="active-path" data-old_color="#000000" fill="#286150"/>
	</g>
</g></g> </svg>
