<svg width="288" height="60" viewBox="0 0 288 60" fill="none" xmlns="http://www.w3.org/2000/svg">
<path fill-rule="evenodd" clip-rule="evenodd" d="M0.490246 0.314145C0.484219 0.487102 0.480451 0.660643 0.478971 0.834738L0.165327 37.7156C0.0741576 48.4359 8.69088 57.2004 19.4113 57.2916L268.102 59.4065C278.822 59.4977 287.586 50.881 287.678 40.1607L287.991 3.27982C287.993 3.10572 287.992 2.93214 287.989 2.75911L273.41 2.63512C273.427 2.80633 273.435 2.98012 273.433 3.15601L273.119 40.0368C273.097 42.7169 270.906 44.8711 268.225 44.8483L19.5351 42.7334C16.8549 42.7106 14.7008 40.5194 14.7235 37.8394L15.0372 0.958545C15.0387 0.782652 15.0495 0.609024 15.0692 0.438129L0.490246 0.314145Z" fill="#732C70"/>
</svg>
