<svg width="157" height="163" viewBox="0 0 157 163" fill="none" xmlns="http://www.w3.org/2000/svg">
<mask id="mask0_45_1201" style="mask-type:alpha" maskUnits="userSpaceOnUse" x="0" y="0" width="157" height="163">
<rect width="157" height="163" rx="10" fill="#243A33"/>
</mask>
<g mask="url(#mask0_45_1201)">
<path d="M1.67983 -52.1297C27.6229 -22.138 81.4138 0.380332 100.521 34.0695C119.702 67.5123 104.271 112.168 69.9676 128.274C35.8605 144.493 -16.8241 132.32 -56.4064 131.548C-96.1034 130.997 -122.324 141.747 -140.51 132.485C-158.695 123.223 -168.527 93.3491 -197.775 74.6758C-226.887 55.792 -275.055 47.9862 -291.901 26.1891C-308.652 4.15767 -294.22 -31.9588 -278.373 -66.0489C-262.526 -100.139 -245.276 -132.017 -218.976 -160.69C-192.929 -189.496 -157.716 -214.797 -123.302 -213.763C-88.6604 -212.599 -54.9325 -184.877 -38.7412 -152.28C-22.5499 -119.683 -24.2632 -82.1213 1.67983 -52.1297Z" stroke="#F18E46" stroke-width="4" stroke-miterlimit="10"/>
<path d="M-40.9862 -124.415C-27.7073 -97.5833 -29.8245 -65.7267 -10.4193 -40.4583C8.98593 -15.19 50.0876 3.52188 63.768 30.0633C77.5333 56.4338 63.8421 90.5997 36.8221 104.71C9.80208 118.821 -30.136 113.141 -61.3416 113.74C-92.5472 114.339 -114.843 121.553 -130.855 113.477C-146.866 105.401 -156.468 81.8196 -180.414 65.9872C-204.36 50.1548 -242.164 41.7062 -254.723 22.9612C-267.165 4.0365 -254.455 -25.4302 -240.243 -52.1184C-226.03 -78.8066 -210.536 -102.596 -188.738 -125.923C-167.105 -149.344 -139.125 -172.07 -110.926 -172.604C-82.7271 -173.138 -54.2592 -151.258 -40.9862 -124.415Z" stroke="#F18E46" stroke-width="4" stroke-miterlimit="10"/>
<path d="M-43.2068 -96.523C-32.8684 -75.4308 -35.3521 -49.3676 -22.5292 -28.7932C-9.70623 -8.21877 18.7713 6.66912 27.0206 26.0466C35.2699 45.424 23.4251 69.011 3.67617 81.1464C-16.0728 93.2819 -43.4484 93.9611 -66.2773 95.9317C-89.1062 97.9023 -107.363 101.358 -121.19 94.4747C-135.017 87.5915 -144.41 70.2898 -163.044 57.3042C-181.678 44.3187 -209.24 35.4172 -217.518 19.7079C-225.796 3.9987 -214.652 -18.9209 -202.168 -38.2342C-189.685 -57.5476 -175.829 -73.2368 -158.503 -91.1984C-141.178 -109.16 -120.547 -129.393 -98.6362 -131.536C-76.725 -133.679 -53.5451 -117.615 -43.2068 -96.523Z" stroke="#F18E46" stroke-width="4" stroke-miterlimit="10"/>
<path d="M-45.4211 -68.6409C-37.9773 -53.3444 -40.9493 -32.9114 -34.6225 -17.1324C-28.2958 -1.35341 -12.5551 9.81046 -9.70878 21.9989C-6.86242 34.1874 -16.9678 47.3811 -29.4457 57.5414C-41.6415 67.4413 -55.9141 74.4607 -71.1992 78.0765C-85.7328 81.4405 -99.8584 81.1218 -111.511 75.4251C-123.164 69.7284 -132.327 58.7188 -145.648 48.5535C-158.968 38.3882 -176.301 29.0545 -180.293 16.3973C-184.285 3.74005 -174.826 -12.4528 -164.034 -24.3837C-153.241 -36.3147 -141.062 -43.9111 -128.218 -56.5139C-115.375 -69.1167 -101.923 -86.7024 -86.2383 -90.4882C-70.554 -94.274 -52.8411 -83.9787 -45.4211 -68.6409Z" stroke="#F18E46" stroke-width="4" stroke-miterlimit="10"/>
</g>
</svg>
