<svg width="312" height="435" viewBox="0 0 312 435" fill="none" xmlns="http://www.w3.org/2000/svg">
<mask id="mask0_53_2285" style="mask-type:alpha" maskUnits="userSpaceOnUse" x="0" y="0" width="312" height="435">
<rect width="312" height="435" fill="#D9D9D9"/>
</mask>
<g mask="url(#mask0_53_2285)">
<path d="M628.181 86.8218C679.839 144.137 785.374 185.809 823.88 250.587C862.519 314.884 834.272 402.366 768.18 435.059C702.474 467.964 599.502 446.373 522.47 446.441C445.224 446.945 394.642 468.898 358.897 451.601C323.153 434.304 302.841 376.58 245.204 341.414C187.822 305.833 93.8093 292.559 60.1741 250.825C26.7126 208.631 53.3559 137.799 82.8309 70.8539C112.306 3.90851 144.598 -58.7885 194.624 -115.611C244.152 -172.682 311.649 -223.298 378.638 -222.652C446.073 -221.761 512.785 -169.171 545.575 -106.401C578.366 -43.6313 576.523 29.507 628.181 86.8218Z" stroke="white" stroke-opacity="0.2" stroke-width="4" stroke-miterlimit="10"/>
<path d="M542.313 -52.106C569.209 -0.435283 566.355 61.6207 605.107 110.006C643.859 158.392 724.558 193.163 752.224 244.252C780.048 295.005 754.769 362.013 702.766 390.535C650.763 419.056 572.844 409.591 512.162 411.994C451.481 414.397 408.394 429.315 376.925 414.241C345.457 399.166 325.842 353.672 278.632 323.823C231.421 293.973 157.545 279.038 132.369 243.07C107.414 206.749 130.97 148.922 157.56 96.4407C184.149 43.9593 213.347 -2.93422 254.826 -49.1766C295.979 -95.5978 349.51 -140.918 404.345 -143.075C459.18 -145.232 515.428 -103.797 542.313 -52.106Z" stroke="white" stroke-opacity="0.2" stroke-width="4" stroke-miterlimit="10"/>
<path d="M539.1 2.2423C560.049 42.8638 556.251 93.6639 582.012 133.18C607.773 172.695 663.762 200.527 680.579 237.896C697.395 275.264 675.289 321.619 637.352 346.01C599.415 370.401 546.187 372.808 501.855 377.547C457.523 382.286 422.145 389.733 394.973 376.891C367.802 364.05 348.844 330.765 312.079 306.242C275.315 281.72 221.343 265.497 204.617 235.266C187.891 205.034 208.659 160.006 232.178 121.94C255.697 83.8735 282.029 52.8029 315.021 17.1742C348.012 -18.4545 387.342 -58.6333 429.882 -63.6713C472.422 -68.7093 518.152 -38.3792 539.1 2.2423Z" stroke="#F18E46" stroke-width="4" stroke-miterlimit="10"/>
<path d="M535.899 56.5706C550.986 86.0322 546.015 125.899 558.949 156.344C571.883 186.788 602.946 207.881 608.967 231.479C614.988 255.077 595.853 281.144 571.982 301.404C548.65 321.147 521.163 335.368 491.572 343.008C463.432 350.129 435.941 350.069 413.046 339.45C390.151 328.83 371.889 307.776 345.573 288.53C319.257 269.283 285.167 251.813 276.9 227.349C268.633 202.885 286.392 171.009 306.913 147.371C327.434 123.733 350.827 108.472 375.311 83.4463C399.796 58.4201 425.267 23.6763 455.629 15.6894C485.99 7.70257 520.856 27.0277 535.899 56.5706Z" stroke="#F18E46" stroke-width="4" stroke-miterlimit="10"/>
</g>
</svg>
