<?xml version="1.0"?>
<svg xmlns="http://www.w3.org/2000/svg" xmlns:xlink="http://www.w3.org/1999/xlink" version="1.1" id="Layer_1" x="0px" y="0px" viewBox="0 0 512 512" style="enable-background:new 0 0 512 512;" xml:space="preserve" width="512px" height="512px"><g><g>
	<g>
		<path d="M373.333,0H138.667C97.493,0,64,33.493,64,74.667v362.667C64,478.507,97.493,512,138.667,512h234.667    C414.507,512,448,478.507,448,437.333V74.667C448,33.493,414.507,0,373.333,0z M426.667,437.333    c0,29.397-23.915,53.333-53.333,53.333H138.667c-29.419,0-53.333-23.936-53.333-53.333V74.667    c0-29.397,23.915-53.333,53.333-53.333h234.667c29.419,0,53.333,23.936,53.333,53.333V437.333z" data-original="#000000" class="active-path" data-old_color="#000000" fill="#286150"/>
	</g>
</g><g>
	<g>
		<path d="M373.333,42.667H138.667c-17.643,0-32,14.357-32,32v106.667c0,17.643,14.357,32,32,32h234.667c17.643,0,32-14.357,32-32    V74.667C405.333,57.024,390.976,42.667,373.333,42.667z M384,181.333c0,5.888-4.8,10.667-10.667,10.667H138.667    C132.8,192,128,187.221,128,181.333V74.667C128,68.779,132.8,64,138.667,64h234.667C379.2,64,384,68.779,384,74.667V181.333z" data-original="#000000" class="active-path" data-old_color="#000000" fill="#286150"/>
	</g>
</g><g>
	<g>
		<path d="M338.133,88.533c-3.84-4.053-10.88-4.267-15.147,0C321.067,90.453,320,93.227,320,96s1.067,5.547,3.179,7.68    c1.941,1.92,4.715,2.987,7.488,2.987c2.773,0,5.547-1.067,7.659-3.2c1.941-1.92,3.008-4.693,3.008-7.467    S340.267,90.667,338.133,88.533z" data-original="#000000" class="active-path" data-old_color="#000000" fill="#286150"/>
	</g>
</g><g>
	<g>
		<path d="M338.133,152.533c-3.84-4.053-10.88-4.267-15.147,0c-1.92,1.92-2.987,4.693-2.987,7.467s1.067,5.547,3.179,7.68    c1.941,1.92,4.715,2.987,7.488,2.987c2.773,0,5.547-1.067,7.659-3.2c1.941-1.92,3.008-4.693,3.008-7.467    S340.267,154.667,338.133,152.533z" data-original="#000000" class="active-path" data-old_color="#000000" fill="#286150"/>
	</g>
</g><g>
	<g>
		<path d="M352,106.667c-5.888,0-10.667,4.779-10.667,10.667v21.333c0,5.888,4.779,10.667,10.667,10.667    c5.888,0,10.667-4.779,10.667-10.667v-21.333C362.667,111.445,357.888,106.667,352,106.667z" data-original="#000000" class="active-path" data-old_color="#000000" fill="#286150"/>
	</g>
</g><g>
	<g>
		<path d="M309.333,106.667c-5.888,0-10.667,4.779-10.667,10.667v21.333c0,5.888,4.779,10.667,10.667,10.667    S320,144.555,320,138.667v-21.333C320,111.445,315.221,106.667,309.333,106.667z" data-original="#000000" class="active-path" data-old_color="#000000" fill="#286150"/>
	</g>
</g><g>
	<g>
		<path d="M160,256h-21.333c-17.643,0-32,14.357-32,32v21.333c0,17.643,14.357,32,32,32H160c17.643,0,32-14.357,32-32V288    C192,270.357,177.643,256,160,256z M170.667,309.333c0,5.888-4.8,10.667-10.667,10.667h-21.333C132.8,320,128,315.221,128,309.333    V288c0-5.888,4.8-10.667,10.667-10.667H160c5.867,0,10.667,4.779,10.667,10.667V309.333z" data-original="#000000" class="active-path" data-old_color="#000000" fill="#286150"/>
	</g>
</g><g>
	<g>
		<path d="M266.667,256h-21.333c-17.643,0-32,14.357-32,32v21.333c0,17.643,14.357,32,32,32h21.333c17.643,0,32-14.357,32-32V288    C298.667,270.357,284.309,256,266.667,256z M277.333,309.333c0,5.888-4.8,10.667-10.667,10.667h-21.333    c-5.867,0-10.667-4.779-10.667-10.667V288c0-5.888,4.8-10.667,10.667-10.667h21.333c5.867,0,10.667,4.779,10.667,10.667V309.333z" data-original="#000000" class="active-path" data-old_color="#000000" fill="#286150"/>
	</g>
</g><g>
	<g>
		<path d="M373.333,256H352c-17.643,0-32,14.357-32,32v21.333c0,17.643,14.357,32,32,32h21.333c17.643,0,32-14.357,32-32V288    C405.333,270.357,390.976,256,373.333,256z M384,309.333c0,5.888-4.8,10.667-10.667,10.667H352    c-5.867,0-10.667-4.779-10.667-10.667V288c0-5.888,4.8-10.667,10.667-10.667h21.333C379.2,277.333,384,282.112,384,288V309.333z" data-original="#000000" class="active-path" data-old_color="#000000" fill="#286150"/>
	</g>
</g><g>
	<g>
		<path d="M160,362.667h-21.333c-17.643,0-32,14.357-32,32V416c0,17.643,14.357,32,32,32H160c17.643,0,32-14.357,32-32v-21.333    C192,377.024,177.643,362.667,160,362.667z M170.667,416c0,5.888-4.8,10.667-10.667,10.667h-21.333    C132.8,426.667,128,421.888,128,416v-21.333c0-5.888,4.8-10.667,10.667-10.667H160c5.867,0,10.667,4.779,10.667,10.667V416z" data-original="#000000" class="active-path" data-old_color="#000000" fill="#286150"/>
	</g>
</g><g>
	<g>
		<path d="M266.667,362.667h-21.333c-17.643,0-32,14.357-32,32V416c0,17.643,14.357,32,32,32h21.333c17.643,0,32-14.357,32-32    v-21.333C298.667,377.024,284.309,362.667,266.667,362.667z M277.333,416c0,5.888-4.8,10.667-10.667,10.667h-21.333    c-5.867,0-10.667-4.779-10.667-10.667v-21.333c0-5.888,4.8-10.667,10.667-10.667h21.333c5.867,0,10.667,4.779,10.667,10.667V416z" data-original="#000000" class="active-path" data-old_color="#000000" fill="#286150"/>
	</g>
</g><g>
	<g>
		<path d="M373.333,362.667H352c-17.643,0-32,14.357-32,32V416c0,17.643,14.357,32,32,32h21.333c17.643,0,32-14.357,32-32v-21.333    C405.333,377.024,390.976,362.667,373.333,362.667z M384,416c0,5.888-4.8,10.667-10.667,10.667H352    c-5.867,0-10.667-4.779-10.667-10.667v-21.333c0-5.888,4.8-10.667,10.667-10.667h21.333C379.2,384,384,388.779,384,394.667V416z" data-original="#000000" class="active-path" data-old_color="#000000" fill="#286150"/>
	</g>
</g></g> </svg>
